<svg width="204" height="48" viewBox="0 0 204 48" fill="none" xmlns="http://www.w3.org/2000/svg">
<path fill-rule="evenodd" clip-rule="evenodd" d="M16.2547 7.05308C13.9477 8.4361 11.2402 11.9556 9.73202 20.0481C8.25021 27.9991 10.0291 32.4494 12.6469 34.7895C15.3355 37.193 19.3604 37.7877 23.1703 37.0526C32.0433 35.3408 37.6827 29.5673 39.5077 24.2149C40.4221 21.533 40.3431 19.091 39.4438 17.2955C38.5764 15.5636 36.8145 14.1678 33.747 13.7606C31.9018 13.5156 30.1694 13.6648 28.5814 14.104C28.8438 16.0214 28.91 18.0254 28.7822 19.9509C28.5819 22.9694 27.8936 25.9643 26.5865 28.1741C25.2506 30.4325 23.0827 32.1006 20.1113 31.6184C18.7454 31.3968 17.6004 30.8029 16.766 29.8609C15.9428 28.9316 15.5198 27.7751 15.3836 26.5801C15.116 24.2319 15.918 21.5104 17.374 19.0582C18.9963 16.3258 21.5801 13.689 24.8955 12.06C24.8687 11.9569 24.8412 11.8546 24.8129 11.7532C24.128 9.29478 23.1035 7.65534 22.0077 6.96235C20.778 6.18458 18.5287 5.68992 16.2547 7.05308ZM27.937 10.925C27.9334 10.9119 27.9297 10.8989 27.9261 10.8858C27.1697 8.17083 25.8536 5.57077 23.7352 4.23098C21.6504 2.91244 18.0815 2.18999 14.5931 4.28119C11.1378 6.35254 8.13854 10.9588 6.55494 19.456C4.95365 28.048 6.72942 33.8345 10.493 37.1989C14.1857 40.5 19.3688 41.0774 23.7825 40.2259C33.7257 38.3076 40.3453 31.7724 42.5666 25.2579C43.6753 22.0063 43.7243 18.6253 42.3334 15.8482C40.9106 13.0075 38.1222 11.0812 34.1723 10.5569C31.9387 10.2604 29.8498 10.4245 27.937 10.925ZM25.4824 15.4094C23.1946 16.7318 21.3695 18.6591 20.1529 20.7081C18.9197 22.7851 18.4328 24.7943 18.5946 26.2141C18.6732 26.9032 18.8946 27.39 19.1851 27.718C19.4644 28.0333 19.9025 28.3105 20.629 28.4284C21.8421 28.6252 22.8827 28.0877 23.8049 26.5287C24.7558 24.921 25.3751 22.4866 25.5575 19.7369C25.6526 18.3038 25.6259 16.8311 25.4824 15.4094Z" fill="#DB3B3B"/>
<path d="M69.5937 20.2499C70.7549 20.4973 71.6876 21.0779 72.3919 21.9916C73.0962 22.8863 73.4484 23.9142 73.4484 25.0754C73.4484 26.7505 72.8583 28.083 71.6781 29.0728C70.5169 30.0436 68.8894 30.529 66.7955 30.529H57.4586V10.4847H66.4814C68.5182 10.4847 70.1077 10.951 71.2498 11.8838C72.411 12.8165 72.9916 14.0824 72.9916 15.6814C72.9916 16.8616 72.6775 17.8419 72.0493 18.6223C71.4402 19.4028 70.6216 19.9453 69.5937 20.2499ZM62.3412 18.5938H65.5392C66.3387 18.5938 66.9478 18.4225 67.3666 18.0798C67.8044 17.7182 68.0233 17.1947 68.0233 16.5094C68.0233 15.8241 67.8044 15.3007 67.3666 14.939C66.9478 14.5773 66.3387 14.3965 65.5392 14.3965H62.3412V18.5938ZM65.9389 26.5887C66.7574 26.5887 67.3856 26.4078 67.8234 26.0462C68.2803 25.6655 68.5087 25.1229 68.5087 24.4186C68.5087 23.7143 68.2708 23.1623 67.7949 22.7626C67.338 22.3628 66.7003 22.1629 65.8818 22.1629H62.3412V26.5887H65.9389Z" fill="#1F397D"/>
<path d="M83.5328 30.7574C81.9719 30.7574 80.5633 30.4243 79.3069 29.7581C78.0696 29.0918 77.0893 28.1401 76.366 26.9028C75.6616 25.6655 75.3095 24.2188 75.3095 22.5627C75.3095 20.9256 75.6712 19.4885 76.3945 18.2511C77.1179 16.9948 78.1077 16.0335 79.364 15.3673C80.6204 14.701 82.029 14.3679 83.5899 14.3679C85.1508 14.3679 86.5595 14.701 87.8158 15.3673C89.0721 16.0335 90.062 16.9948 90.7853 18.2511C91.5087 19.4885 91.8703 20.9256 91.8703 22.5627C91.8703 24.1997 91.4992 25.6464 90.7568 26.9028C90.0334 28.1401 89.0341 29.0918 87.7587 29.7581C86.5023 30.4243 85.0937 30.7574 83.5328 30.7574ZM83.5328 26.5316C84.4655 26.5316 85.2555 26.1889 85.9027 25.5037C86.569 24.8184 86.9021 23.8381 86.9021 22.5627C86.9021 21.2873 86.5785 20.307 85.9313 19.6217C85.3031 18.9364 84.5227 18.5938 83.5899 18.5938C82.6381 18.5938 81.8482 18.9364 81.22 19.6217C80.5918 20.2879 80.2777 21.2683 80.2777 22.5627C80.2777 23.8381 80.5823 24.8184 81.1915 25.5037C81.8196 26.1889 82.6001 26.5316 83.5328 26.5316Z" fill="#1F397D"/>
<path d="M104.169 14.425C106.034 14.425 107.519 15.0342 108.623 16.2524C109.746 17.4517 110.308 19.1077 110.308 21.2207V30.529H105.454V21.8774C105.454 20.8114 105.178 19.9834 104.626 19.3933C104.074 18.8032 103.331 18.5081 102.398 18.5081C101.466 18.5081 100.723 18.8032 100.171 19.3933C99.6193 19.9834 99.3433 20.8114 99.3433 21.8774V30.529H94.4607V14.5963H99.3433V16.7093C99.8382 16.005 100.504 15.4529 101.342 15.0532C102.18 14.6344 103.122 14.425 104.169 14.425Z" fill="#1F397D"/>
<path d="M120.953 30.7574C119.392 30.7574 117.984 30.4243 116.727 29.7581C115.49 29.0918 114.51 28.1401 113.786 26.9028C113.082 25.6655 112.73 24.2188 112.73 22.5627C112.73 20.9256 113.091 19.4885 113.815 18.2511C114.538 16.9948 115.528 16.0335 116.784 15.3673C118.041 14.701 119.449 14.3679 121.01 14.3679C122.571 14.3679 123.98 14.701 125.236 15.3673C126.492 16.0335 127.482 16.9948 128.206 18.2511C128.929 19.4885 129.291 20.9256 129.291 22.5627C129.291 24.1997 128.919 25.6464 128.177 26.9028C127.454 28.1401 126.454 29.0918 125.179 29.7581C123.923 30.4243 122.514 30.7574 120.953 30.7574ZM120.953 26.5316C121.886 26.5316 122.676 26.1889 123.323 25.5037C123.989 24.8184 124.322 23.8381 124.322 22.5627C124.322 21.2873 123.999 20.307 123.352 19.6217C122.723 18.9364 121.943 18.5938 121.01 18.5938C120.058 18.5938 119.268 18.9364 118.64 19.6217C118.012 20.2879 117.698 21.2683 117.698 22.5627C117.698 23.8381 118.003 24.8184 118.612 25.5037C119.24 26.1889 120.02 26.5316 120.953 26.5316Z" fill="#1F397D"/>
<path d="M142.814 26.76H149.21V30.529H137.932V10.4847H142.814V26.76Z" fill="#1F397D"/>
<path d="M150.568 22.5341C150.568 20.8971 150.873 19.4599 151.482 18.2226C152.11 16.9853 152.957 16.0335 154.023 15.3673C155.089 14.701 156.279 14.3679 157.592 14.3679C158.716 14.3679 159.696 14.5963 160.533 15.0532C161.39 15.51 162.047 16.1097 162.504 16.852V14.5963H167.386V30.529H162.504V28.2733C162.028 29.0157 161.361 29.6153 160.505 30.0722C159.667 30.529 158.687 30.7574 157.564 30.7574C156.269 30.7574 155.089 30.4243 154.023 29.7581C152.957 29.0728 152.11 28.1115 151.482 26.8742C150.873 25.6179 150.568 24.1712 150.568 22.5341ZM162.504 22.5627C162.504 21.3444 162.161 20.3831 161.476 19.6788C160.809 18.9745 159.991 18.6223 159.02 18.6223C158.049 18.6223 157.221 18.9745 156.536 19.6788C155.87 20.3641 155.537 21.3159 155.537 22.5341C155.537 23.7524 155.87 24.7232 156.536 25.4466C157.221 26.1509 158.049 26.503 159.02 26.503C159.991 26.503 160.809 26.1509 161.476 25.4466C162.161 24.7422 162.504 23.7809 162.504 22.5627Z" fill="#1F397D"/>
<path d="M175.801 16.852C176.258 16.1097 176.915 15.51 177.771 15.0532C178.628 14.5963 179.608 14.3679 180.712 14.3679C182.026 14.3679 183.215 14.701 184.281 15.3673C185.347 16.0335 186.185 16.9853 186.794 18.2226C187.422 19.4599 187.736 20.8971 187.736 22.5341C187.736 24.1712 187.422 25.6179 186.794 26.8742C186.185 28.1115 185.347 29.0728 184.281 29.7581C183.215 30.4243 182.026 30.7574 180.712 30.7574C179.589 30.7574 178.609 30.5385 177.771 30.1007C176.934 29.6439 176.277 29.0443 175.801 28.3019V30.529H170.919V9.39966H175.801V16.852ZM182.768 22.5341C182.768 21.3159 182.425 20.3641 181.74 19.6788C181.074 18.9745 180.246 18.6223 179.256 18.6223C178.285 18.6223 177.457 18.9745 176.772 19.6788C176.106 20.3831 175.773 21.3444 175.773 22.5627C175.773 23.7809 176.106 24.7422 176.772 25.4466C177.457 26.1509 178.285 26.503 179.256 26.503C180.227 26.503 181.055 26.1509 181.74 25.4466C182.425 24.7232 182.768 23.7524 182.768 22.5341Z" fill="#1F397D"/>
<path d="M196.779 30.7574C195.39 30.7574 194.153 30.5195 193.068 30.0436C191.983 29.5677 191.126 28.9205 190.498 28.102C189.87 27.2644 189.517 26.3317 189.441 25.3038H194.267C194.324 25.8558 194.581 26.3031 195.038 26.6458C195.495 26.9884 196.056 27.1597 196.722 27.1597C197.331 27.1597 197.798 27.0455 198.121 26.8171C198.464 26.5696 198.635 26.2556 198.635 25.8748C198.635 25.418 198.397 25.0849 197.922 24.8755C197.446 24.6471 196.675 24.3996 195.609 24.1331C194.467 23.8666 193.515 23.5906 192.753 23.3051C191.992 23.0005 191.335 22.5341 190.783 21.906C190.231 21.2587 189.955 20.3926 189.955 19.3076C189.955 18.3939 190.203 17.5659 190.698 16.8235C191.212 16.0621 191.954 15.4625 192.925 15.0246C193.915 14.5868 195.085 14.3679 196.437 14.3679C198.436 14.3679 200.006 14.8628 201.148 15.8527C202.309 16.8425 202.975 18.156 203.147 19.793H198.635C198.559 19.241 198.312 18.8032 197.893 18.4796C197.493 18.156 196.96 17.9942 196.294 17.9942C195.723 17.9942 195.285 18.1084 194.981 18.3368C194.676 18.5462 194.524 18.8412 194.524 19.222C194.524 19.6788 194.762 20.0214 195.238 20.2499C195.733 20.4783 196.494 20.7067 197.522 20.9351C198.702 21.2397 199.663 21.5443 200.406 21.8489C201.148 22.1344 201.795 22.6103 202.347 23.2765C202.918 23.9237 203.213 24.7993 203.232 25.9034C203.232 26.8361 202.966 27.6737 202.433 28.4161C201.919 29.1394 201.167 29.7105 200.177 30.1293C199.206 30.5481 198.074 30.7574 196.779 30.7574Z" fill="#1F397D"/>
</svg>
