<svg width="204" height="48" viewBox="0 0 204 48" fill="none" xmlns="http://www.w3.org/2000/svg">
<path fill-rule="evenodd" clip-rule="evenodd" d="M16.2547 7.05308C13.9477 8.4361 11.2402 11.9556 9.73202 20.0481C8.25021 27.9991 10.0291 32.4494 12.6469 34.7895C15.3355 37.193 19.3604 37.7877 23.1703 37.0526C32.0433 35.3408 37.6827 29.5673 39.5077 24.2149C40.4221 21.533 40.3431 19.091 39.4438 17.2955C38.5764 15.5636 36.8145 14.1678 33.747 13.7606C31.9018 13.5156 30.1694 13.6648 28.5814 14.104C28.8438 16.0214 28.91 18.0254 28.7822 19.9509C28.5819 22.9694 27.8936 25.9643 26.5865 28.1741C25.2506 30.4325 23.0827 32.1006 20.1113 31.6184C18.7454 31.3968 17.6004 30.8029 16.766 29.8609C15.9428 28.9316 15.5198 27.7751 15.3836 26.5801C15.116 24.2319 15.918 21.5104 17.374 19.0582C18.9963 16.3258 21.5801 13.689 24.8955 12.06C24.8687 11.9569 24.8412 11.8546 24.8129 11.7532C24.128 9.29478 23.1035 7.65534 22.0077 6.96235C20.778 6.18458 18.5287 5.68992 16.2547 7.05308ZM27.937 10.925C27.9334 10.9119 27.9297 10.8989 27.9261 10.8858C27.1697 8.17083 25.8536 5.57077 23.7352 4.23098C21.6504 2.91244 18.0815 2.18999 14.5931 4.28119C11.1378 6.35254 8.13854 10.9588 6.55494 19.456C4.95365 28.048 6.72942 33.8345 10.493 37.1989C14.1857 40.5 19.3688 41.0774 23.7825 40.2259C33.7257 38.3076 40.3453 31.7724 42.5666 25.2579C43.6753 22.0063 43.7243 18.6253 42.3334 15.8482C40.9106 13.0075 38.1222 11.0812 34.1723 10.5569C31.9387 10.2604 29.8498 10.4245 27.937 10.925ZM25.4824 15.4094C23.1946 16.7318 21.3695 18.6591 20.1529 20.7081C18.9197 22.7851 18.4328 24.7943 18.5946 26.2141C18.6732 26.9032 18.8946 27.39 19.1851 27.718C19.4644 28.0333 19.9025 28.3105 20.6289 28.4284C21.8421 28.6252 22.8827 28.0877 23.8049 26.5287C24.7558 24.921 25.3751 22.4866 25.5575 19.7369C25.6526 18.3038 25.6259 16.8311 25.4824 15.4094Z" fill="#DB3B3B"/>
<path d="M69.5937 22.2499C70.7549 22.4973 71.6876 23.0779 72.3919 23.9916C73.0962 24.8863 73.4484 25.9142 73.4484 27.0754C73.4484 28.7505 72.8583 30.083 71.6781 31.0728C70.5169 32.0436 68.8894 32.529 66.7955 32.529H57.4586V12.4847H66.4814C68.5182 12.4847 70.1077 12.951 71.2498 13.8838C72.411 14.8165 72.9916 16.0824 72.9916 17.6814C72.9916 18.8616 72.6775 19.8419 72.0493 20.6223C71.4402 21.4028 70.6216 21.9453 69.5937 22.2499ZM62.3412 20.5938H65.5392C66.3387 20.5938 66.9478 20.4225 67.3666 20.0798C67.8044 19.7182 68.0233 19.1947 68.0233 18.5094C68.0233 17.8241 67.8044 17.3007 67.3666 16.939C66.9478 16.5773 66.3387 16.3965 65.5392 16.3965H62.3412V20.5938ZM65.9389 28.5887C66.7574 28.5887 67.3856 28.4078 67.8234 28.0462C68.2803 27.6655 68.5087 27.1229 68.5087 26.4186C68.5087 25.7143 68.2708 25.1623 67.7949 24.7626C67.338 24.3628 66.7003 24.1629 65.8818 24.1629H62.3412V28.5887H65.9389Z" fill="#1F397D"/>
<path d="M83.5328 32.7574C81.9719 32.7574 80.5633 32.4243 79.3069 31.7581C78.0696 31.0918 77.0893 30.1401 76.366 28.9028C75.6616 27.6655 75.3095 26.2188 75.3095 24.5627C75.3095 22.9256 75.6712 21.4885 76.3945 20.2511C77.1179 18.9948 78.1077 18.0335 79.364 17.3673C80.6204 16.701 82.029 16.3679 83.5899 16.3679C85.1508 16.3679 86.5595 16.701 87.8158 17.3673C89.0721 18.0335 90.062 18.9948 90.7853 20.2511C91.5087 21.4885 91.8703 22.9256 91.8703 24.5627C91.8703 26.1997 91.4992 27.6464 90.7568 28.9028C90.0334 30.1401 89.0341 31.0918 87.7587 31.7581C86.5023 32.4243 85.0937 32.7574 83.5328 32.7574ZM83.5328 28.5316C84.4655 28.5316 85.2555 28.1889 85.9027 27.5037C86.569 26.8184 86.9021 25.8381 86.9021 24.5627C86.9021 23.2873 86.5785 22.307 85.9313 21.6217C85.3031 20.9364 84.5227 20.5938 83.5899 20.5938C82.6381 20.5938 81.8482 20.9364 81.22 21.6217C80.5918 22.2879 80.2777 23.2683 80.2777 24.5627C80.2777 25.8381 80.5823 26.8184 81.1915 27.5037C81.8196 28.1889 82.6001 28.5316 83.5328 28.5316Z" fill="#1F397D"/>
<path d="M104.169 16.425C106.034 16.425 107.519 17.0342 108.623 18.2524C109.746 19.4517 110.308 21.1077 110.308 23.2207V32.529H105.454V23.8774C105.454 22.8114 105.178 21.9834 104.626 21.3933C104.074 20.8032 103.331 20.5081 102.398 20.5081C101.466 20.5081 100.723 20.8032 100.171 21.3933C99.6193 21.9834 99.3433 22.8114 99.3433 23.8774V32.529H94.4607V16.5963H99.3433V18.7093C99.8382 18.005 100.504 17.4529 101.342 17.0532C102.18 16.6344 103.122 16.425 104.169 16.425Z" fill="#1F397D"/>
<path d="M120.953 32.7574C119.392 32.7574 117.984 32.4243 116.727 31.7581C115.49 31.0918 114.51 30.1401 113.786 28.9028C113.082 27.6655 112.73 26.2188 112.73 24.5627C112.73 22.9256 113.091 21.4885 113.815 20.2511C114.538 18.9948 115.528 18.0335 116.784 17.3673C118.041 16.701 119.449 16.3679 121.01 16.3679C122.571 16.3679 123.98 16.701 125.236 17.3673C126.492 18.0335 127.482 18.9948 128.206 20.2511C128.929 21.4885 129.291 22.9256 129.291 24.5627C129.291 26.1997 128.919 27.6464 128.177 28.9028C127.454 30.1401 126.454 31.0918 125.179 31.7581C123.923 32.4243 122.514 32.7574 120.953 32.7574ZM120.953 28.5316C121.886 28.5316 122.676 28.1889 123.323 27.5037C123.989 26.8184 124.322 25.8381 124.322 24.5627C124.322 23.2873 123.999 22.307 123.352 21.6217C122.723 20.9364 121.943 20.5938 121.01 20.5938C120.058 20.5938 119.268 20.9364 118.64 21.6217C118.012 22.2879 117.698 23.2683 117.698 24.5627C117.698 25.8381 118.003 26.8184 118.612 27.5037C119.24 28.1889 120.02 28.5316 120.953 28.5316Z" fill="#1F397D"/>
<path d="M142.814 28.76H149.21V32.529H137.932V12.4847H142.814V28.76Z" fill="#1F397D"/>
<path d="M150.568 24.5341C150.568 22.8971 150.873 21.4599 151.482 20.2226C152.11 18.9853 152.957 18.0335 154.023 17.3673C155.089 16.701 156.279 16.3679 157.592 16.3679C158.716 16.3679 159.696 16.5963 160.533 17.0532C161.39 17.51 162.047 18.1097 162.504 18.852V16.5963H167.386V32.529H162.504V30.2733C162.028 31.0157 161.361 31.6153 160.505 32.0722C159.667 32.529 158.687 32.7574 157.564 32.7574C156.269 32.7574 155.089 32.4243 154.023 31.7581C152.957 31.0728 152.11 30.1115 151.482 28.8742C150.873 27.6179 150.568 26.1712 150.568 24.5341ZM162.504 24.5627C162.504 23.3444 162.161 22.3831 161.476 21.6788C160.809 20.9745 159.991 20.6223 159.02 20.6223C158.049 20.6223 157.221 20.9745 156.536 21.6788C155.87 22.3641 155.537 23.3159 155.537 24.5341C155.537 25.7524 155.87 26.7232 156.536 27.4466C157.221 28.1509 158.049 28.503 159.02 28.503C159.991 28.503 160.809 28.1509 161.476 27.4466C162.161 26.7422 162.504 25.7809 162.504 24.5627Z" fill="#1F397D"/>
<path d="M175.801 18.852C176.258 18.1097 176.915 17.51 177.771 17.0532C178.628 16.5963 179.608 16.3679 180.712 16.3679C182.026 16.3679 183.215 16.701 184.281 17.3673C185.347 18.0335 186.185 18.9853 186.794 20.2226C187.422 21.4599 187.736 22.8971 187.736 24.5341C187.736 26.1712 187.422 27.6179 186.794 28.8742C186.185 30.1115 185.347 31.0728 184.281 31.7581C183.215 32.4243 182.026 32.7574 180.712 32.7574C179.589 32.7574 178.609 32.5385 177.771 32.1007C176.934 31.6439 176.277 31.0443 175.801 30.3019V32.529H170.919V11.3997H175.801V18.852ZM182.768 24.5341C182.768 23.3159 182.425 22.3641 181.74 21.6788C181.074 20.9745 180.246 20.6223 179.256 20.6223C178.285 20.6223 177.457 20.9745 176.772 21.6788C176.106 22.3831 175.773 23.3444 175.773 24.5627C175.773 25.7809 176.106 26.7422 176.772 27.4466C177.457 28.1509 178.285 28.503 179.256 28.503C180.227 28.503 181.055 28.1509 181.74 27.4466C182.425 26.7232 182.768 25.7524 182.768 24.5341Z" fill="#1F397D"/>
<path d="M196.779 32.7574C195.39 32.7574 194.153 32.5195 193.068 32.0436C191.983 31.5677 191.126 30.9205 190.498 30.102C189.87 29.2644 189.517 28.3317 189.441 27.3038H194.267C194.324 27.8558 194.581 28.3031 195.038 28.6458C195.495 28.9884 196.056 29.1597 196.722 29.1597C197.331 29.1597 197.798 29.0455 198.121 28.8171C198.464 28.5696 198.635 28.2556 198.635 27.8748C198.635 27.418 198.397 27.0849 197.922 26.8755C197.446 26.6471 196.675 26.3996 195.609 26.1331C194.467 25.8666 193.515 25.5906 192.753 25.3051C191.992 25.0005 191.335 24.5341 190.783 23.906C190.231 23.2587 189.955 22.3926 189.955 21.3076C189.955 20.3939 190.203 19.5659 190.698 18.8235C191.212 18.0621 191.954 17.4625 192.925 17.0246C193.915 16.5868 195.085 16.3679 196.437 16.3679C198.436 16.3679 200.006 16.8628 201.148 17.8527C202.309 18.8425 202.975 20.156 203.147 21.793H198.635C198.559 21.241 198.312 20.8032 197.893 20.4796C197.493 20.156 196.96 19.9942 196.294 19.9942C195.723 19.9942 195.285 20.1084 194.981 20.3368C194.676 20.5462 194.524 20.8412 194.524 21.222C194.524 21.6788 194.762 22.0214 195.238 22.2499C195.732 22.4783 196.494 22.7067 197.522 22.9351C198.702 23.2397 199.663 23.5443 200.406 23.8489C201.148 24.1344 201.795 24.6103 202.347 25.2765C202.918 25.9237 203.213 26.7993 203.232 27.9034C203.232 28.8361 202.966 29.6737 202.433 30.4161C201.919 31.1394 201.167 31.7105 200.177 32.1293C199.206 32.5481 198.074 32.7574 196.779 32.7574Z" fill="#1F397D"/>
</svg>
